<?xml version="1.0" encoding="iso-8859-1"?>
<!-- Uploaded to: SVG Repo, www.svgrepo.com, Generator: SVG Repo Mixer Tools -->
<svg height="800px" width="800px" version="1.1" id="Layer_1" xmlns="http://www.w3.org/2000/svg" xmlns:xlink="http://www.w3.org/1999/xlink" 
	 viewBox="0 0 503.467 503.467" xml:space="preserve">
<g transform="translate(5 1)">
	<path style="fill:#F2EDDA;" d="M460.067,105.667V395.8c0,18.773-15.36,34.133-34.133,34.133H135.8
		c-18.773,0-34.133-15.36-34.133-34.133V37.4c0-6.827,2.56-13.653,5.973-18.773c5.973-9.387,16.213-15.36,28.16-15.36h221.867
		v68.267c0,18.773,15.36,34.133,34.133,34.133H460.067z"/>
	<path style="fill:#AAB1BA;" d="M460.067,105.667H391.8c-18.773,0-34.133-15.36-34.133-34.133V3.267L460.067,105.667z"/>
	<g>
		<path style="fill:#F2EDDA;" d="M425.933,429.933l17.067,2.56c-0.853,7.68-5.12,31.573-34.133,31.573h-307.2
			c-18.773,0-34.133-15.36-34.133-34.133V54.467c0,0,0-34.133,34.133-34.133l5.973-1.707c-3.413,5.12-5.973,11.947-5.973,18.773
			v358.4c0,18.773,15.36,34.133,34.133,34.133H425.933z"/>
		<path style="fill:#F2EDDA;" d="M101.667,464.067h307.2c0,0,0,34.133-34.133,34.133h-307.2c-18.773,0-34.133-15.36-34.133-34.133
			V88.6c0,0,0-34.133,34.133-34.133v375.467C67.533,448.707,82.893,464.067,101.667,464.067"/>
	</g>
</g>
<path style="fill:#51565F;" d="M379.733,503.467h-307.2c-21.333,0-38.4-17.067-38.4-38.4V89.6c0-2.56,1.707-4.267,4.267-4.267
	s4.267,1.707,4.267,4.267v375.467c0,16.213,13.653,29.867,29.867,29.867h307.2c2.56,0,4.267,1.707,4.267,4.267
	C384,501.76,382.293,503.467,379.733,503.467z M413.867,469.333h-307.2c-21.333,0-38.4-17.067-38.4-38.4V55.467
	c0-2.56,1.707-4.267,4.267-4.267c2.56,0,4.267,1.707,4.267,4.267v375.467c0,16.213,13.653,29.867,29.867,29.867h307.2
	c2.56,0,4.267,1.707,4.267,4.267C418.133,467.627,416.427,469.333,413.867,469.333z M430.933,435.2H140.8
	c-21.333,0-38.4-17.067-38.4-38.4V38.4c0-21.333,17.067-38.4,38.4-38.4h221.867c0.853,0,2.56,0.853,3.413,0.853l68.267,68.267
	c1.707,1.707,1.707,4.267,0,5.973c-1.707,1.707-4.267,1.707-5.973,0L360.96,7.68H140.8c-16.213,0-29.867,13.653-29.867,29.867v358.4
	c0,16.213,13.653,29.867,29.867,29.867h290.133c16.213,0,29.867-13.653,29.867-29.867V110.08h-64c-21.333,0-38.4-17.067-38.4-38.4
	v-25.6c0-2.56,1.707-4.267,4.267-4.267s4.267,1.707,4.267,4.267v25.6c0,16.213,13.653,29.867,29.867,29.867h68.267
	c2.56,0,4.267,1.707,4.267,4.267v290.133C469.333,418.133,452.267,435.2,430.933,435.2z M379.733,349.867H260.267
	c-2.56,0-4.267-1.707-4.267-4.267c0-2.56,1.707-4.267,4.267-4.267h119.467c2.56,0,4.267,1.707,4.267,4.267
	C384,348.16,382.293,349.867,379.733,349.867z M226.133,349.867H192c-2.56,0-4.267-1.707-4.267-4.267
	c0-2.56,1.707-4.267,4.267-4.267h34.133c2.56,0,4.267,1.707,4.267,4.267C230.4,348.16,228.693,349.867,226.133,349.867z
	 M362.667,298.667h-34.133c-2.56,0-4.267-1.707-4.267-4.267c0-2.56,1.707-4.267,4.267-4.267h34.133c2.56,0,4.267,1.707,4.267,4.267
	C366.933,296.96,365.227,298.667,362.667,298.667z M294.4,298.667H192c-2.56,0-4.267-1.707-4.267-4.267
	c0-2.56,1.707-4.267,4.267-4.267h102.4c2.56,0,4.267,1.707,4.267,4.267C298.667,296.96,296.96,298.667,294.4,298.667z
	 M379.733,247.467h-68.267c-2.56,0-4.267-1.707-4.267-4.267s1.707-4.267,4.267-4.267h68.267c2.56,0,4.267,1.707,4.267,4.267
	S382.293,247.467,379.733,247.467z M277.333,247.467h-17.067c-2.56,0-4.267-1.707-4.267-4.267s1.707-4.267,4.267-4.267h17.067
	c2.56,0,4.267,1.707,4.267,4.267S279.893,247.467,277.333,247.467z M226.133,247.467H192c-2.56,0-4.267-1.707-4.267-4.267
	s1.707-4.267,4.267-4.267h34.133c2.56,0,4.267,1.707,4.267,4.267S228.693,247.467,226.133,247.467z M362.667,196.267h-85.333
	c-2.56,0-4.267-1.707-4.267-4.267c0-2.56,1.707-4.267,4.267-4.267h85.333c2.56,0,4.267,1.707,4.267,4.267
	C366.933,194.56,365.227,196.267,362.667,196.267z M243.2,196.267H192c-2.56,0-4.267-1.707-4.267-4.267
	c0-2.56,1.707-4.267,4.267-4.267h51.2c2.56,0,4.267,1.707,4.267,4.267C247.467,194.56,245.76,196.267,243.2,196.267z M294.4,128H192
	c-2.56,0-4.267-1.707-4.267-4.267c0-2.56,1.707-4.267,4.267-4.267h102.4c2.56,0,4.267,1.707,4.267,4.267
	C298.667,126.293,296.96,128,294.4,128z"/>
</svg>